<?xml version="1.0" standalone="no"?>
<!DOCTYPE svg PUBLIC "-//W3C//DTD SVG 20010904//EN"
 "http://www.w3.org/TR/2001/REC-SVG-20010904/DTD/svg10.dtd">
<svg  version="1.1" baseProfile="tiny-ps" xmlns="http://www.w3.org/2000/svg"
 width="96.000000pt" height="96.000000pt" viewBox="0 0 96.000000 96.000000"
 preserveAspectRatio="xMidYMid meet">

<g transform="translate(0.000000,96.000000) scale(0.100000,-0.100000)"
fill="#000000" stroke="none">
<path d="M363 772 c-101 -36 -178 -122 -204 -227 -7 -27 -20 -61 -31 -74 -10
-13 -18 -32 -18 -43 0 -27 26 -74 45 -82 14 -5 16 5 14 84 -1 65 2 95 12 108
8 9 25 39 38 65 47 94 147 151 262 150 103 -1 204 -66 254 -164 13 -25 31 -52
41 -59 15 -13 16 -12 9 20 -17 81 -84 164 -169 207 -68 35 -178 42 -253 15z"/>
<path d="M350 642 c0 -4 28 -23 61 -41 l61 -34 64 34 c59 31 78 49 54 49 -5 0
-32 -13 -60 -30 -28 -16 -54 -30 -58 -30 -5 0 -29 14 -55 30 -48 30 -67 37
-67 22z"/>
<path d="M316 621 c-7 -11 133 -91 159 -91 18 0 141 66 151 81 12 20 -24 7
-84 -31 -34 -22 -65 -40 -67 -40 -3 0 -35 19 -72 41 -38 23 -71 43 -75 45 -4
3 -9 0 -12 -5z"/>
<path d="M290 470 c0 -148 -5 -139 115 -201 l65 -34 52 29 c29 16 70 40 91 53
l37 23 0 125 0 126 -30 -16 c-17 -9 -52 -29 -77 -45 -26 -17 -56 -30 -67 -30
-12 0 -58 22 -103 50 l-83 49 0 -129z m326 -9 c-8 -9 -16 -25 -17 -35 -5 -24
-29 -33 -29 -11 0 11 -5 15 -15 11 -9 -3 -15 0 -15 10 0 8 7 17 15 20 8 4 15
14 15 23 0 27 10 31 36 14 22 -14 23 -18 10 -32z m-98 -3 c-6 -17 -41 -26 -65
-17 -36 13 -27 24 23 26 28 1 44 -2 42 -9z m0 -140 c-9 -25 -36 -32 -65 -18
l-28 14 35 7 c54 10 62 10 58 -3z"/>
<path d="M212 532 c-9 -6 -12 -36 -10 -113 3 -104 3 -104 28 -104 25 0 25 1
28 99 3 112 -8 141 -46 118z"/>
<path d="M697 533 c-4 -3 -7 -53 -7 -110 0 -83 3 -105 15 -109 8 -4 22 -1 30
6 19 16 22 189 3 208 -13 13 -31 16 -41 5z"/>
<path d="M15 452 c-5 -32 6 -92 18 -92 2 0 3 29 3 65 -1 72 -11 85 -21 27z"/>
<path d="M770 415 c1 -44 -3 -92 -9 -107 -15 -39 -64 -61 -122 -56 -51 5 -76
-3 -64 -21 9 -15 119 -4 157 16 26 13 58 59 58 83 0 7 9 23 20 37 28 36 25 65
-11 99 l-30 29 1 -80z"/>
<path d="M911 469 c7 -13 9 -40 5 -66 -7 -52 10 -50 20 3 7 37 -8 84 -26 84
-7 0 -7 -7 1 -21z"/>
<path d="M870 425 c0 -28 4 -44 10 -40 6 3 10 21 10 40 0 19 -4 37 -10 40 -6
4 -10 -12 -10 -40z"/>
<path d="M60 426 c0 -19 5 -38 10 -41 6 -4 10 10 10 34 0 23 -4 41 -10 41 -5
0 -10 -15 -10 -34z"/>
</g>
</svg>
